<svg xmlns="http://www.w3.org/2000/svg" viewBox="0 0 1000 1000"><path d="M590.9 375.8c-52.3 0-89.5 14.4-132.9 51.2-13.6 11.9-28 28.5-40.5 46.9l-1.5 2.2-86.1 12c-4.4 5.8-17.7 23.8-29.6 42.8-14.1 22.6-18.9 34.8-20.4 41.2 14.6-11.3 46.6-32.7 79.9-32.7h20.7l-4.3 8.6c-4.6 9.3-7.8 16.7-9.5 20.8l86.3 86.3v.1c.3.2 1.1.5 2.7.5 2.9 0 9.4-.8 19.5-5.8l8.6-4.3v9.6c0 32-21.9 62.7-33.5 76.7 21.8-4.4 68.1-34.7 87.7-48.6l12-84.9 2-1.5c4.2-3.1 8.8-7 13.6-11 3.6-3 7.2-6 11.1-9.2 48.8-41.5 74.7-87.1 77-135.5 1.5-31.5-8.1-54.4-11.4-61.3-21.4-2.8-37.4-4.1-51.4-4.1zM539 550.9c-38.4 0-69.6-31.2-69.6-69.6 0-38.4 31.2-69.6 69.6-69.6 38.4 0 69.6 31.2 69.6 69.6-.1 38.4-31.3 69.6-69.6 69.6z"/><path d="M539 443.1c-21.1 0-38.3 17.2-38.3 38.3 0 21.1 17.2 38.2 38.3 38.2 21.1 0 38.3-17.2 38.3-38.2-.1-21.2-17.3-38.3-38.3-38.3z"/><path d="M762.9 338.7c-58.3-103.3-166.9-167-286-167-79.4 0-156.1 28.7-215.8 80.9-54.3 47.4-91.4 111.1-105.8 181C70 458.1 10 536.6 10 627c0 100.1 74.4 184.2 170.9 199v2.3h563.9c135.2 0 245.2-110 245.2-245.2C990 454 889.7 348 762.9 338.7zm-492 385.8c-5.2 0-10.1-2.1-13.9-5.9-7.9-7.9-7.9-19.9 0-27.8l59.1-59.1c3.8-3.8 8.7-5.9 13.9-5.9 5.1 0 9.9 2 13.7 5.7 3.7 3.2 5.8 7.7 6.1 12.8.3 5.6-1.9 11.1-5.9 15.1l-59.1 59.1c-3.8 3.9-8.8 6-13.9 6zm119.2-18.9L331 764.7c-3.8 3.8-8.7 5.9-13.9 5.9s-10.1-2.1-13.9-5.9c-3.8-3.8-5.9-8.7-5.9-13.9 0-5.2 2.1-10.1 5.9-13.9l59.1-59.1c3.7-3.7 8.9-5.9 14.2-5.9 5.4 0 10.4 2.2 13.7 6.1 7.8 8 7.7 19.8-.1 27.6zm303.7-265.3c-1.9 42.4-19.4 105.8-91.7 166.8l-.4.3c-5.6 4-10.6 8.1-15.5 12.1l-10.7 71.6c-1.2 9.2-5.8 17-13.5 22.5-24 17.3-83.5 57.4-117.1 57.4-12.5 0-23.9-4.8-31.2-13.1-11.6-12.8-11-33.8 1.2-46 3.4-3.4 10.4-12.2 17-22.8-3.5-2.1-6.6-4.8-8.9-7.9l-87.5-86.5c-2-2-3.9-4.7-5.4-7.4-16.4 7.8-28.8 18-31.6 20.5-5.6 5.4-14.4 9-22.5 9-7.7 0-15.3-2.8-21.3-7.8-14.4-12.1-18.2-29.7-11.2-52.4 5.6-18.2 17-36.1 23.9-46.8 14.5-22.2 30.7-44.2 33.7-47.7 5.7-6.8 13.6-11.2 22.3-12.2l71.4-9.8c12.1-16.2 25.6-30.8 39.1-42.4 49.5-42.9 96.6-60.5 158.2-59.6 20.6 0 42.2 2.4 60.7 4.7 9.5 1.1 18.7 7.2 24.6 16.5 3.6 5.8 18.2 37.8 16.4 81z"/></svg>